# xmcd
#
# Track frame offsets:
#	150
#	11197
#	19002
#	30067
#	39142
#	49657
#	58352
#	66822
#	81685
#	92465
#
# Disc length: 1339 seconds
#
# Revision: 0
# Processed by: cddbd v1.5.2PL0 Copyright (c) Steve Scherf et al.
# Submitted via: audiograbber 1.83.01
#
DISCID=7505390a
DTITLE=Roger Miller - King of the Road
DYEAR=1992
DGENRE=Country
TTITLE0=King Of The Road
TTITLE1=Dang Me
TTITLE2=Husbands And Wives
TTITLE3=Chug-A-Lug
TTITLE4=Release Me
TTITLE5=England Swings
TTITLE6=You Can't Roller Skate In A Buffalo Herd
TTITLE7=Me And Bobby McGee
TTITLE8=Don't We All Have The Right
TTITLE9=In The Summertime (You Don't Want My Love)
EXTD=Corrected misspellings in song titles and corrected year of release on Epi
EXTD=c CD - 1992 on Epic CD
EXTT0=
EXTT1=
EXTT2=
EXTT3=
EXTT4=
EXTT5=
EXTT6=
EXTT7=
EXTT8=
EXTT9=
PLAYORDER=
